<?xml version="1.0" encoding="UTF-8" standalone="no"?><svg xmlns="http://www.w3.org/2000/svg" xmlns:xlink="http://www.w3.org/1999/xlink" contentStyleType="text/css" height="803px" preserveAspectRatio="none" style="width:951px;height:803px;background:#FFFFFF;" version="1.1" viewBox="0 0 951 803" width="951px" zoomAndPan="magnify"><defs/><g><!--MD5=[47c14c564e796a575e671c2b0469a7bb]
cluster backend--><g id="cluster_backend"><path d="M8.5,6 L76.5,6 A3.75,3.75 0 0 1 79,8.5 L86,28.2969 L941.5,28.2969 A2.5,2.5 0 0 1 944,30.7969 L944,793.5 A2.5,2.5 0 0 1 941.5,796 L8.5,796 A2.5,2.5 0 0 1 6,793.5 L6,8.5 A2.5,2.5 0 0 1 8.5,6 " fill="none" style="stroke:#000000;stroke-width:1.5;"/><line style="stroke:#000000;stroke-width:1.5;" x1="6" x2="86" y1="28.2969" y2="28.2969"/><text fill="#000000" font-family="sans-serif" font-size="14" font-weight="bold" lengthAdjust="spacing" textLength="67" x="10" y="20.9951">backend</text></g><!--MD5=[0c20c5bceeaef229f5b0b218a0989ad5]
cluster roles--><g id="cluster_roles"><path d="M32.5,49 L73.5,49 A3.75,3.75 0 0 1 76,51.5 L83,71.2969 L917.5,71.2969 A2.5,2.5 0 0 1 920,73.7969 L920,769.5 A2.5,2.5 0 0 1 917.5,772 L32.5,772 A2.5,2.5 0 0 1 30,769.5 L30,51.5 A2.5,2.5 0 0 1 32.5,49 " fill="none" style="stroke:#000000;stroke-width:1.5;"/><line style="stroke:#000000;stroke-width:1.5;" x1="30" x2="83" y1="71.2969" y2="71.2969"/><text fill="#000000" font-family="sans-serif" font-size="14" font-weight="bold" lengthAdjust="spacing" textLength="40" x="34" y="63.9951">roles</text></g><!--MD5=[35a64b983c79880384a2fd9b61f0c24b]
class Usuario--><g id="elem_Usuario"><rect codeLine="3" fill="#F1F1F1" height="145.7813" id="Usuario" rx="2.5" ry="2.5" style="stroke:#181818;stroke-width:0.5;" width="160" x="88" y="133"/><ellipse cx="137.75" cy="149" fill="#ADD1B2" rx="11" ry="11" style="stroke:#181818;stroke-width:1.0;"/><path d="M137.2188,155.9219 Q135.4688,155.9219 134.3281,155.1875 Q133.2031,154.4375 132.6406,153.0938 Q132.0938,151.7344 132.0938,149.9375 Q132.0938,147.9063 132.75,146.4531 Q133.4063,145 134.6875,144.2188 Q135.9688,143.4375 137.8438,143.4375 Q138.7344,143.4375 139.4063,143.625 Q140.0781,143.7969 140.7656,144.1406 L139.9531,146.1563 Q139.3281,145.8438 138.7813,145.7188 Q138.25,145.5938 137.7656,145.5938 Q136.5938,145.5938 135.8906,146.125 Q135.1875,146.6563 134.8906,147.6094 Q134.5938,148.5625 134.5938,149.8281 Q134.5938,151.8438 135.3125,152.8125 Q136.0313,153.7656 137.625,153.7656 Q138.2188,153.7656 138.8438,153.6094 Q139.4688,153.4531 140.2969,153.0781 L140.2969,155.2969 Q139.5625,155.6094 138.7656,155.7656 Q137.9844,155.9219 137.2188,155.9219 Z " fill="#000000"/><text fill="#000000" font-family="sans-serif" font-size="14" lengthAdjust="spacing" textLength="52" x="158.25" y="153.8467">Usuario</text><line style="stroke:#181818;stroke-width:0.5;" x1="89" x2="247" y1="165" y2="165"/><rect fill="none" height="6" style="stroke:#C82930;stroke-width:1.0;" width="6" x="96" y="175.6484"/><text fill="#000000" font-family="sans-serif" font-size="14" lengthAdjust="spacing" textLength="33" x="108" y="181.9951">int id</text><rect fill="none" height="6" style="stroke:#C82930;stroke-width:1.0;" width="6" x="96" y="191.9453"/><text fill="#000000" font-family="sans-serif" font-size="14" lengthAdjust="spacing" textLength="98" x="108" y="198.292">String nombre</text><rect fill="none" height="6" style="stroke:#C82930;stroke-width:1.0;" width="6" x="96" y="208.2422"/><text fill="#000000" font-family="sans-serif" font-size="14" lengthAdjust="spacing" textLength="122" x="108" y="214.5889">String contraseña</text><rect fill="none" height="6" style="stroke:#C82930;stroke-width:1.0;" width="6" x="96" y="224.5391"/><text fill="#000000" font-family="sans-serif" font-size="14" lengthAdjust="spacing" textLength="70" x="108" y="230.8857">String tipo</text><line style="stroke:#181818;stroke-width:0.5;" x1="89" x2="247" y1="238.1875" y2="238.1875"/><ellipse cx="99" cy="251.8359" fill="#84BE84" rx="3" ry="3" style="stroke:#038048;stroke-width:1.0;"/><text fill="#000000" font-family="sans-serif" font-size="14" lengthAdjust="spacing" textLength="133" x="108" y="255.1826">iniciarSesion(): void</text><ellipse cx="99" cy="268.1328" fill="#84BE84" rx="3" ry="3" style="stroke:#038048;stroke-width:1.0;"/><text fill="#000000" font-family="sans-serif" font-size="14" lengthAdjust="spacing" textLength="134" x="108" y="271.4795">cerrarSesion(): void</text></g><!--MD5=[fdcda49d453d44c676d62f3f6af62207]
class Administrador--><g id="elem_Administrador"><rect codeLine="12" fill="#F1F1F1" height="243.5625" id="Administrador" rx="2.5" ry="2.5" style="stroke:#181818;stroke-width:0.5;" width="267" x="283.5" y="84"/><ellipse cx="365.25" cy="100" fill="#ADD1B2" rx="11" ry="11" style="stroke:#181818;stroke-width:1.0;"/><path d="M364.7188,106.9219 Q362.9688,106.9219 361.8281,106.1875 Q360.7031,105.4375 360.1406,104.0938 Q359.5938,102.7344 359.5938,100.9375 Q359.5938,98.9063 360.25,97.4531 Q360.9063,96 362.1875,95.2188 Q363.4688,94.4375 365.3438,94.4375 Q366.2344,94.4375 366.9063,94.625 Q367.5781,94.7969 368.2656,95.1406 L367.4531,97.1563 Q366.8281,96.8438 366.2813,96.7188 Q365.75,96.5938 365.2656,96.5938 Q364.0938,96.5938 363.3906,97.125 Q362.6875,97.6563 362.3906,98.6094 Q362.0938,99.5625 362.0938,100.8281 Q362.0938,102.8438 362.8125,103.8125 Q363.5313,104.7656 365.125,104.7656 Q365.7188,104.7656 366.3438,104.6094 Q366.9688,104.4531 367.7969,104.0781 L367.7969,106.2969 Q367.0625,106.6094 366.2656,106.7656 Q365.4844,106.9219 364.7188,106.9219 Z " fill="#000000"/><text fill="#000000" font-family="sans-serif" font-size="14" lengthAdjust="spacing" textLength="95" x="385.75" y="104.8467">Administrador</text><line style="stroke:#181818;stroke-width:0.5;" x1="284.5" x2="549.5" y1="116" y2="116"/><rect fill="none" height="6" style="stroke:#C82930;stroke-width:1.0;" width="6" x="291.5" y="126.6484"/><text fill="#000000" font-family="sans-serif" font-size="14" lengthAdjust="spacing" textLength="107" x="303.5" y="132.9951">Usuario usuario</text><rect fill="none" height="6" style="stroke:#C82930;stroke-width:1.0;" width="6" x="291.5" y="142.9453"/><text fill="#000000" font-family="sans-serif" font-size="14" lengthAdjust="spacing" textLength="63" x="303.5" y="149.292">Ruta ruta</text><rect fill="none" height="6" style="stroke:#C82930;stroke-width:1.0;" width="6" x="291.5" y="159.2422"/><text fill="#000000" font-family="sans-serif" font-size="14" lengthAdjust="spacing" textLength="199" x="303.5" y="165.5889">double tarifaOperacionGlobal</text><line style="stroke:#181818;stroke-width:0.5;" x1="284.5" x2="549.5" y1="172.8906" y2="172.8906"/><ellipse cx="294.5" cy="186.5391" fill="#84BE84" rx="3" ry="3" style="stroke:#038048;stroke-width:1.0;"/><text fill="#000000" font-family="sans-serif" font-size="14" lengthAdjust="spacing" textLength="134" x="303.5" y="189.8857">crearUsuario(): void</text><ellipse cx="294.5" cy="202.8359" fill="#84BE84" rx="3" ry="3" style="stroke:#038048;stroke-width:1.0;"/><text fill="#000000" font-family="sans-serif" font-size="14" lengthAdjust="spacing" textLength="152" x="303.5" y="206.1826">eliminarUsuario(): void</text><ellipse cx="294.5" cy="219.1328" fill="#84BE84" rx="3" ry="3" style="stroke:#038048;stroke-width:1.0;"/><text fill="#000000" font-family="sans-serif" font-size="14" lengthAdjust="spacing" textLength="114" x="303.5" y="222.4795">crearRuta(): void</text><ellipse cx="294.5" cy="235.4297" fill="#84BE84" rx="3" ry="3" style="stroke:#038048;stroke-width:1.0;"/><text fill="#000000" font-family="sans-serif" font-size="14" lengthAdjust="spacing" textLength="132" x="303.5" y="238.7764">eliminarRuta(): void</text><ellipse cx="294.5" cy="251.7266" fill="#84BE84" rx="3" ry="3" style="stroke:#038048;stroke-width:1.0;"/><text fill="#000000" font-family="sans-serif" font-size="14" lengthAdjust="spacing" textLength="186" x="303.5" y="255.0732">modificarTarifaGloba(): void</text><ellipse cx="294.5" cy="268.0234" fill="#84BE84" rx="3" ry="3" style="stroke:#038048;stroke-width:1.0;"/><text fill="#000000" font-family="sans-serif" font-size="14" lengthAdjust="spacing" textLength="149" x="303.5" y="271.3701">desactivarRuta(): void</text><ellipse cx="294.5" cy="284.3203" fill="#84BE84" rx="3" ry="3" style="stroke:#038048;stroke-width:1.0;"/><text fill="#000000" font-family="sans-serif" font-size="14" lengthAdjust="spacing" textLength="191" x="303.5" y="287.667">agregarPuntoControl(): void</text><ellipse cx="294.5" cy="300.6172" fill="#84BE84" rx="3" ry="3" style="stroke:#038048;stroke-width:1.0;"/><text fill="#000000" font-family="sans-serif" font-size="14" lengthAdjust="spacing" textLength="177" x="303.5" y="303.9639">quitarPuntoControl(): void</text><ellipse cx="294.5" cy="316.9141" fill="#84BE84" rx="3" ry="3" style="stroke:#038048;stroke-width:1.0;"/><text fill="#000000" font-family="sans-serif" font-size="14" lengthAdjust="spacing" textLength="241" x="303.5" y="320.2607">modificarDatosPuntoControl(): void</text></g><!--MD5=[fab2bf77794b72db8fcfc46d69428253]
class Ruta--><g id="elem_Ruta"><rect codeLine="27" fill="#F1F1F1" height="145.7813" id="Ruta" rx="2.5" ry="2.5" style="stroke:#181818;stroke-width:0.5;" width="217" x="585.5" y="133"/><ellipse cx="673.75" cy="149" fill="#ADD1B2" rx="11" ry="11" style="stroke:#181818;stroke-width:1.0;"/><path d="M673.2188,155.9219 Q671.4688,155.9219 670.3281,155.1875 Q669.2031,154.4375 668.6406,153.0938 Q668.0938,151.7344 668.0938,149.9375 Q668.0938,147.9063 668.75,146.4531 Q669.4063,145 670.6875,144.2188 Q671.9688,143.4375 673.8438,143.4375 Q674.7344,143.4375 675.4063,143.625 Q676.0781,143.7969 676.7656,144.1406 L675.9531,146.1563 Q675.3281,145.8438 674.7813,145.7188 Q674.25,145.5938 673.7656,145.5938 Q672.5938,145.5938 671.8906,146.125 Q671.1875,146.6563 670.8906,147.6094 Q670.5938,148.5625 670.5938,149.8281 Q670.5938,151.8438 671.3125,152.8125 Q672.0313,153.7656 673.625,153.7656 Q674.2188,153.7656 674.8438,153.6094 Q675.4688,153.4531 676.2969,153.0781 L676.2969,155.2969 Q675.5625,155.6094 674.7656,155.7656 Q673.9844,155.9219 673.2188,155.9219 Z " fill="#000000"/><text fill="#000000" font-family="sans-serif" font-size="14" lengthAdjust="spacing" textLength="32" x="694.25" y="153.8467">Ruta</text><line style="stroke:#181818;stroke-width:0.5;" x1="586.5" x2="801.5" y1="165" y2="165"/><rect fill="none" height="6" style="stroke:#C82930;stroke-width:1.0;" width="6" x="593.5" y="175.6484"/><text fill="#000000" font-family="sans-serif" font-size="14" lengthAdjust="spacing" textLength="33" x="605.5" y="181.9951">int id</text><rect fill="none" height="6" style="stroke:#C82930;stroke-width:1.0;" width="6" x="593.5" y="191.9453"/><text fill="#000000" font-family="sans-serif" font-size="14" lengthAdjust="spacing" textLength="96" x="605.5" y="198.292">String destino</text><rect fill="none" height="6" style="stroke:#C82930;stroke-width:1.0;" width="6" x="593.5" y="208.2422"/><text fill="#000000" font-family="sans-serif" font-size="14" lengthAdjust="spacing" textLength="186" x="605.5" y="214.5889">PuntoControl puntoControl</text><rect fill="none" height="6" style="stroke:#C82930;stroke-width:1.0;" width="6" x="593.5" y="224.5391"/><text fill="#000000" font-family="sans-serif" font-size="14" lengthAdjust="spacing" textLength="99" x="605.5" y="230.8857">boolean activa</text><line style="stroke:#181818;stroke-width:0.5;" x1="586.5" x2="801.5" y1="238.1875" y2="238.1875"/><ellipse cx="596.5" cy="251.8359" fill="#84BE84" rx="3" ry="3" style="stroke:#038048;stroke-width:1.0;"/><text fill="#000000" font-family="sans-serif" font-size="14" lengthAdjust="spacing" textLength="191" x="605.5" y="255.1826">agregarPuntoControl(): void</text><ellipse cx="596.5" cy="268.1328" fill="#84BE84" rx="3" ry="3" style="stroke:#038048;stroke-width:1.0;"/><text fill="#000000" font-family="sans-serif" font-size="14" lengthAdjust="spacing" textLength="174" x="605.5" y="271.4795">quitarPuntoContro(): void</text></g><!--MD5=[0b8b5dea5edb132985e08c81172a3d5b]
class PuntoControl--><g id="elem_PuntoControl"><rect codeLine="36" fill="#F1F1F1" height="162.0781" id="PuntoControl" rx="2.5" ry="2.5" style="stroke:#181818;stroke-width:0.5;" width="243" x="46.5" y="388"/><ellipse cx="118.25" cy="404" fill="#ADD1B2" rx="11" ry="11" style="stroke:#181818;stroke-width:1.0;"/><path d="M117.7188,410.9219 Q115.9688,410.9219 114.8281,410.1875 Q113.7031,409.4375 113.1406,408.0938 Q112.5938,406.7344 112.5938,404.9375 Q112.5938,402.9063 113.25,401.4531 Q113.9063,400 115.1875,399.2188 Q116.4688,398.4375 118.3438,398.4375 Q119.2344,398.4375 119.9063,398.625 Q120.5781,398.7969 121.2656,399.1406 L120.4531,401.1563 Q119.8281,400.8438 119.2813,400.7188 Q118.75,400.5938 118.2656,400.5938 Q117.0938,400.5938 116.3906,401.125 Q115.6875,401.6563 115.3906,402.6094 Q115.0938,403.5625 115.0938,404.8281 Q115.0938,406.8438 115.8125,407.8125 Q116.5313,408.7656 118.125,408.7656 Q118.7188,408.7656 119.3438,408.6094 Q119.9688,408.4531 120.7969,408.0781 L120.7969,410.2969 Q120.0625,410.6094 119.2656,410.7656 Q118.4844,410.9219 117.7188,410.9219 Z " fill="#000000"/><text fill="#000000" font-family="sans-serif" font-size="14" lengthAdjust="spacing" textLength="91" x="138.75" y="408.8467">PuntoControl</text><line style="stroke:#181818;stroke-width:0.5;" x1="47.5" x2="288.5" y1="420" y2="420"/><rect fill="none" height="6" style="stroke:#C82930;stroke-width:1.0;" width="6" x="54.5" y="430.6484"/><text fill="#000000" font-family="sans-serif" font-size="14" lengthAdjust="spacing" textLength="33" x="66.5" y="436.9951">int id</text><rect fill="none" height="6" style="stroke:#C82930;stroke-width:1.0;" width="6" x="54.5" y="446.9453"/><text fill="#000000" font-family="sans-serif" font-size="14" lengthAdjust="spacing" textLength="98" x="66.5" y="453.292">String nombre</text><rect fill="none" height="6" style="stroke:#C82930;stroke-width:1.0;" width="6" x="54.5" y="463.2422"/><text fill="#000000" font-family="sans-serif" font-size="14" lengthAdjust="spacing" textLength="156" x="66.5" y="469.5889">double tarifaOperacion</text><rect fill="none" height="6" style="stroke:#C82930;stroke-width:1.0;" width="6" x="54.5" y="479.5391"/><text fill="#000000" font-family="sans-serif" font-size="14" lengthAdjust="spacing" textLength="121" x="66.5" y="485.8857">int capacidadCola</text><rect fill="none" height="6" style="stroke:#C82930;stroke-width:1.0;" width="6" x="54.5" y="495.8359"/><text fill="#000000" font-family="sans-serif" font-size="14" lengthAdjust="spacing" textLength="63" x="66.5" y="502.1826">Ruta ruta</text><line style="stroke:#181818;stroke-width:0.5;" x1="47.5" x2="288.5" y1="509.4844" y2="509.4844"/><ellipse cx="57.5" cy="523.1328" fill="#84BE84" rx="3" ry="3" style="stroke:#038048;stroke-width:1.0;"/><text fill="#000000" font-family="sans-serif" font-size="14" lengthAdjust="spacing" textLength="217" x="66.5" y="526.4795">modificarTarifaOperacion(): void</text><ellipse cx="57.5" cy="539.4297" fill="#84BE84" rx="3" ry="3" style="stroke:#038048;stroke-width:1.0;"/><text fill="#000000" font-family="sans-serif" font-size="14" lengthAdjust="spacing" textLength="211" x="66.5" y="542.7764">modificarCapacidadCola(): void</text></g><!--MD5=[95ea6b1dcc5abcc60a3f48837adf7563]
class Operador--><g id="elem_Operador"><rect codeLine="46" fill="#F1F1F1" height="80.5938" id="Operador" rx="2.5" ry="2.5" style="stroke:#181818;stroke-width:0.5;" width="292" x="325" y="428.5"/><ellipse cx="434.25" cy="444.5" fill="#ADD1B2" rx="11" ry="11" style="stroke:#181818;stroke-width:1.0;"/><path d="M433.7188,451.4219 Q431.9688,451.4219 430.8281,450.6875 Q429.7031,449.9375 429.1406,448.5938 Q428.5938,447.2344 428.5938,445.4375 Q428.5938,443.4063 429.25,441.9531 Q429.9063,440.5 431.1875,439.7188 Q432.4688,438.9375 434.3438,438.9375 Q435.2344,438.9375 435.9063,439.125 Q436.5781,439.2969 437.2656,439.6406 L436.4531,441.6563 Q435.8281,441.3438 435.2813,441.2188 Q434.75,441.0938 434.2656,441.0938 Q433.0938,441.0938 432.3906,441.625 Q431.6875,442.1563 431.3906,443.1094 Q431.0938,444.0625 431.0938,445.3281 Q431.0938,447.3438 431.8125,448.3125 Q432.5313,449.2656 434.125,449.2656 Q434.7188,449.2656 435.3438,449.1094 Q435.9688,448.9531 436.7969,448.5781 L436.7969,450.7969 Q436.0625,451.1094 435.2656,451.2656 Q434.4844,451.4219 433.7188,451.4219 Z " fill="#000000"/><text fill="#000000" font-family="sans-serif" font-size="14" lengthAdjust="spacing" textLength="65" x="454.75" y="449.3467">Operador</text><line style="stroke:#181818;stroke-width:0.5;" x1="326" x2="616" y1="460.5" y2="460.5"/><rect fill="none" height="6" style="stroke:#C82930;stroke-width:1.0;" width="6" x="333" y="471.1484"/><text fill="#000000" font-family="sans-serif" font-size="14" lengthAdjust="spacing" textLength="266" x="345" y="477.4951">PuntoControl puntosControlAsignados</text><line style="stroke:#181818;stroke-width:0.5;" x1="326" x2="616" y1="484.7969" y2="484.7969"/><ellipse cx="336" cy="498.4453" fill="#84BE84" rx="3" ry="3" style="stroke:#038048;stroke-width:1.0;"/><text fill="#000000" font-family="sans-serif" font-size="14" lengthAdjust="spacing" textLength="214" x="345" y="501.792">registrarTiempoPaquete(): void</text></g><!--MD5=[42915202779b971fc989e75580205344]
class Recepcionista--><g id="elem_Recepcionista"><rect codeLine="51" fill="#F1F1F1" height="129.4844" id="Recepcionista" rx="2.5" ry="2.5" style="stroke:#181818;stroke-width:0.5;" width="251" x="652.5" y="404.5"/><ellipse cx="724.75" cy="420.5" fill="#ADD1B2" rx="11" ry="11" style="stroke:#181818;stroke-width:1.0;"/><path d="M724.2188,427.4219 Q722.4688,427.4219 721.3281,426.6875 Q720.2031,425.9375 719.6406,424.5938 Q719.0938,423.2344 719.0938,421.4375 Q719.0938,419.4063 719.75,417.9531 Q720.4063,416.5 721.6875,415.7188 Q722.9688,414.9375 724.8438,414.9375 Q725.7344,414.9375 726.4063,415.125 Q727.0781,415.2969 727.7656,415.6406 L726.9531,417.6563 Q726.3281,417.3438 725.7813,417.2188 Q725.25,417.0938 724.7656,417.0938 Q723.5938,417.0938 722.8906,417.625 Q722.1875,418.1563 721.8906,419.1094 Q721.5938,420.0625 721.5938,421.3281 Q721.5938,423.3438 722.3125,424.3125 Q723.0313,425.2656 724.625,425.2656 Q725.2188,425.2656 725.8438,425.1094 Q726.4688,424.9531 727.2969,424.5781 L727.2969,426.7969 Q726.5625,427.1094 725.7656,427.2656 Q724.9844,427.4219 724.2188,427.4219 Z " fill="#000000"/><text fill="#000000" font-family="sans-serif" font-size="14" lengthAdjust="spacing" textLength="98" x="745.25" y="425.3467">Recepcionista</text><line style="stroke:#181818;stroke-width:0.5;" x1="653.5" x2="902.5" y1="436.5" y2="436.5"/><rect fill="none" height="6" style="stroke:#C82930;stroke-width:1.0;" width="6" x="660.5" y="447.1484"/><text fill="#000000" font-family="sans-serif" font-size="14" lengthAdjust="spacing" textLength="33" x="672.5" y="453.4951">int id</text><line style="stroke:#181818;stroke-width:0.5;" x1="653.5" x2="902.5" y1="460.7969" y2="460.7969"/><ellipse cx="663.5" cy="474.4453" fill="#84BE84" rx="3" ry="3" style="stroke:#038048;stroke-width:1.0;"/><text fill="#000000" font-family="sans-serif" font-size="14" lengthAdjust="spacing" textLength="162" x="672.5" y="477.792">registrarPaquete(): void</text><ellipse cx="663.5" cy="490.7422" fill="#84BE84" rx="3" ry="3" style="stroke:#038048;stroke-width:1.0;"/><text fill="#000000" font-family="sans-serif" font-size="14" lengthAdjust="spacing" textLength="99" x="672.5" y="494.0889">facturar(): void</text><ellipse cx="663.5" cy="507.0391" fill="#84BE84" rx="3" ry="3" style="stroke:#038048;stroke-width:1.0;"/><text fill="#000000" font-family="sans-serif" font-size="14" lengthAdjust="spacing" textLength="130" x="672.5" y="510.3857">crearCliente(): void</text><ellipse cx="663.5" cy="523.3359" fill="#84BE84" rx="3" ry="3" style="stroke:#038048;stroke-width:1.0;"/><text fill="#000000" font-family="sans-serif" font-size="14" lengthAdjust="spacing" textLength="225" x="672.5" y="526.6826">consultarPaquetesCliente(): void</text></g><!--MD5=[1ea85122e220de361a606a69d95ebe79]
class Paquete--><g id="elem_Paquete"><rect codeLine="59" fill="#F1F1F1" height="145.7813" id="Paquete" rx="2.5" ry="2.5" style="stroke:#181818;stroke-width:0.5;" width="240" x="48" y="610"/><ellipse cx="134.75" cy="626" fill="#ADD1B2" rx="11" ry="11" style="stroke:#181818;stroke-width:1.0;"/><path d="M134.2188,632.9219 Q132.4688,632.9219 131.3281,632.1875 Q130.2031,631.4375 129.6406,630.0938 Q129.0938,628.7344 129.0938,626.9375 Q129.0938,624.9063 129.75,623.4531 Q130.4063,622 131.6875,621.2188 Q132.9688,620.4375 134.8438,620.4375 Q135.7344,620.4375 136.4063,620.625 Q137.0781,620.7969 137.7656,621.1406 L136.9531,623.1563 Q136.3281,622.8438 135.7813,622.7188 Q135.25,622.5938 134.7656,622.5938 Q133.5938,622.5938 132.8906,623.125 Q132.1875,623.6563 131.8906,624.6094 Q131.5938,625.5625 131.5938,626.8281 Q131.5938,628.8438 132.3125,629.8125 Q133.0313,630.7656 134.625,630.7656 Q135.2188,630.7656 135.8438,630.6094 Q136.4688,630.4531 137.2969,630.0781 L137.2969,632.2969 Q136.5625,632.6094 135.7656,632.7656 Q134.9844,632.9219 134.2188,632.9219 Z " fill="#000000"/><text fill="#000000" font-family="sans-serif" font-size="14" lengthAdjust="spacing" textLength="58" x="155.25" y="630.8467">Paquete</text><line style="stroke:#181818;stroke-width:0.5;" x1="49" x2="287" y1="642" y2="642"/><rect fill="none" height="6" style="stroke:#C82930;stroke-width:1.0;" width="6" x="56" y="652.6484"/><text fill="#000000" font-family="sans-serif" font-size="14" lengthAdjust="spacing" textLength="33" x="68" y="658.9951">int id</text><rect fill="none" height="6" style="stroke:#C82930;stroke-width:1.0;" width="6" x="56" y="668.9453"/><text fill="#000000" font-family="sans-serif" font-size="14" lengthAdjust="spacing" textLength="87" x="68" y="675.292">double peso</text><rect fill="none" height="6" style="stroke:#C82930;stroke-width:1.0;" width="6" x="56" y="685.2422"/><text fill="#000000" font-family="sans-serif" font-size="14" lengthAdjust="spacing" textLength="96" x="68" y="691.5889">String destino</text><rect fill="none" height="6" style="stroke:#C82930;stroke-width:1.0;" width="6" x="56" y="701.5391"/><text fill="#000000" font-family="sans-serif" font-size="14" lengthAdjust="spacing" textLength="98" x="68" y="707.8857">Cliente cliente</text><rect fill="none" height="6" style="stroke:#C82930;stroke-width:1.0;" width="6" x="56" y="717.8359"/><text fill="#000000" font-family="sans-serif" font-size="14" lengthAdjust="spacing" textLength="214" x="68" y="724.1826">Date tiempoEnPuntoDeControl</text><line style="stroke:#181818;stroke-width:0.5;" x1="49" x2="287" y1="731.4844" y2="731.4844"/><ellipse cx="59" cy="745.1328" fill="#84BE84" rx="3" ry="3" style="stroke:#038048;stroke-width:1.0;"/><text fill="#000000" font-family="sans-serif" font-size="14" lengthAdjust="spacing" textLength="142" x="68" y="748.4795">calcularPrecio(): void</text></g><!--MD5=[20a748d5ee336a9a91751b0a3d4f0beb]
class Cliente--><g id="elem_Cliente"><rect codeLine="68" fill="#F1F1F1" height="96.8906" id="Cliente" rx="2.5" ry="2.5" style="stroke:#181818;stroke-width:0.5;" width="133" x="323.5" y="634.5"/><ellipse cx="362.35" cy="650.5" fill="#ADD1B2" rx="11" ry="11" style="stroke:#181818;stroke-width:1.0;"/><path d="M361.8188,657.4219 Q360.0688,657.4219 358.9281,656.6875 Q357.8031,655.9375 357.2406,654.5938 Q356.6938,653.2344 356.6938,651.4375 Q356.6938,649.4063 357.35,647.9531 Q358.0063,646.5 359.2875,645.7188 Q360.5688,644.9375 362.4438,644.9375 Q363.3344,644.9375 364.0063,645.125 Q364.6781,645.2969 365.3656,645.6406 L364.5531,647.6563 Q363.9281,647.3438 363.3813,647.2188 Q362.85,647.0938 362.3656,647.0938 Q361.1938,647.0938 360.4906,647.625 Q359.7875,648.1563 359.4906,649.1094 Q359.1938,650.0625 359.1938,651.3281 Q359.1938,653.3438 359.9125,654.3125 Q360.6313,655.2656 362.225,655.2656 Q362.8188,655.2656 363.4438,655.1094 Q364.0688,654.9531 364.8969,654.5781 L364.8969,656.7969 Q364.1625,657.1094 363.3656,657.2656 Q362.5844,657.4219 361.8188,657.4219 Z " fill="#000000"/><text fill="#000000" font-family="sans-serif" font-size="14" lengthAdjust="spacing" textLength="48" x="381.65" y="655.3467">Cliente</text><line style="stroke:#181818;stroke-width:0.5;" x1="324.5" x2="455.5" y1="666.5" y2="666.5"/><rect fill="none" height="6" style="stroke:#C82930;stroke-width:1.0;" width="6" x="331.5" y="677.1484"/><text fill="#000000" font-family="sans-serif" font-size="14" lengthAdjust="spacing" textLength="61" x="343.5" y="683.4951">String nit</text><rect fill="none" height="6" style="stroke:#C82930;stroke-width:1.0;" width="6" x="331.5" y="693.4453"/><text fill="#000000" font-family="sans-serif" font-size="14" lengthAdjust="spacing" textLength="98" x="343.5" y="699.792">String nombre</text><rect fill="none" height="6" style="stroke:#C82930;stroke-width:1.0;" width="6" x="331.5" y="709.7422"/><text fill="#000000" font-family="sans-serif" font-size="14" lengthAdjust="spacing" textLength="107" x="343.5" y="716.0889">String direccion</text><line style="stroke:#181818;stroke-width:0.5;" x1="324.5" x2="455.5" y1="723.3906" y2="723.3906"/></g><!--MD5=[a032f43f85a2f59e9a40544e0bc7783d]
@startuml diagrama_de_clases
    package backend {
        package roles {
            class Usuario {
                - int id
                - String nombre
                - String contraseña
                - String tipo
                + iniciarSesion(): void
                + cerrarSesion(): void
            }

            class Administrador {
                - Usuario usuario
                - Ruta ruta
                - double tarifaOperacionGlobal
                + crearUsuario(): void
                + eliminarUsuario(): void
                + crearRuta(): void
                + eliminarRuta(): void
                + modificarTarifaGloba(): void
                + desactivarRuta(): void
                + agregarPuntoControl(): void
                + quitarPuntoControl(): void
                + modificarDatosPuntoControl(): void
            }

            class Ruta {
                - int id
                - String destino
                - PuntoControl puntoControl
                - boolean activa
                + agregarPuntoControl(): void
                + quitarPuntoContro(): void
            }

            class PuntoControl {
                - int id
                - String nombre
                - double tarifaOperacion
                - int capacidadCola
                - Ruta ruta
                + modificarTarifaOperacion(): void
                + modificarCapacidadCola(): void
            }

            class Operador {
                - PuntoControl puntosControlAsignados
                + registrarTiempoPaquete(): void
            }

            class Recepcionista {
                - int id
                + registrarPaquete(): void
                + facturar(): void
                + crearCliente(): void
                + consultarPaquetesCliente(): void
            }

            class Paquete {
                - int id
                - double peso
                - String destino
                - Cliente cliente
                - Date tiempoEnPuntoDeControl
                + calcularPrecio(): void
            }

            class Cliente {
                - String nit
                - String nombre
                - String direccion
            }
        }
    }
@end

PlantUML version 1.2022.7(Mon Aug 22 11:01:30 CST 2022)
(GPL source distribution)
Java Runtime: OpenJDK Runtime Environment
JVM: OpenJDK 64-Bit Server VM
Default Encoding: UTF-8
Language: es
Country: GT
--></g></svg>