<?xml version="1.0" encoding="UTF-8" standalone="no"?><svg xmlns="http://www.w3.org/2000/svg" xmlns:xlink="http://www.w3.org/1999/xlink" contentStyleType="text/css" height="1364px" preserveAspectRatio="none" style="width:679px;height:1364px;background:#FFFFFF;" version="1.1" viewBox="0 0 679 1364" width="679px" zoomAndPan="magnify"><defs/><g><!--MD5=[db7353cc5db919b65269195986dfafe5]
cluster Sistema de Registro\n(Clientes, Paquetes, Rutas, Ganancias)--><g id="cluster_Sistema de Registro\n(Clientes, Paquetes, Rutas, Ganancias)"><rect fill="none" height="1351" rx="2.5" ry="2.5" style="stroke:#181818;stroke-width:1.0;" width="525" x="148" y="7"/><text fill="#000000" font-family="sans-serif" font-size="14" font-weight="bold" lengthAdjust="spacing" textLength="158" x="331.5" y="21.9951">Sistema de Registro</text><text fill="#000000" font-family="sans-serif" font-size="14" font-weight="bold" lengthAdjust="spacing" textLength="305" x="258" y="38.292">(Clientes, Paquetes, Rutas, Ganancias)</text></g><g id="elem_Config"><ellipse cx="303.3592" cy="77.8718" fill="#F1F1F1" rx="84.8592" ry="19.3718" style="stroke:#181818;stroke-width:0.5;"/><text fill="#000000" font-family="sans-serif" font-size="14" lengthAdjust="spacing" textLength="130" x="238.3592" y="80.7185">Configurar Sistema</text></g><g id="elem_CrearRuta"><ellipse cx="303.5625" cy="148.0125" fill="#F1F1F1" rx="63.0625" ry="15.0125" style="stroke:#181818;stroke-width:0.5;"/><text fill="#000000" font-family="sans-serif" font-size="14" lengthAdjust="spacing" textLength="73" x="264.0625" y="151.7601">Crear Ruta</text></g><g id="elem_DesactivarRuta"><ellipse cx="303.2754" cy="216.0551" fill="#F1F1F1" rx="75.7754" ry="17.5551" style="stroke:#181818;stroke-width:0.5;"/><text fill="#000000" font-family="sans-serif" font-size="14" lengthAdjust="spacing" textLength="108" x="246.2754" y="219.8026">Desactivar Ruta</text></g><g id="elem_AgregarPuntoControl"><ellipse cx="303.4911" cy="291.8982" fill="#F1F1F1" rx="104.9911" ry="23.3982" style="stroke:#181818;stroke-width:0.5;"/><text fill="#000000" font-family="sans-serif" font-size="14" lengthAdjust="spacing" textLength="175" x="215.9911" y="294.7449">Agregar Punto de Control</text></g><g id="elem_QuitarPuntoControl"><ellipse cx="303.5673" cy="373.2135" fill="#F1F1F1" rx="99.0673" ry="22.2135" style="stroke:#181818;stroke-width:0.5;"/><text fill="#000000" font-family="sans-serif" font-size="14" lengthAdjust="spacing" textLength="162" x="222.5673" y="376.0601">Quitar Punto de Control</text></g><g id="elem_ConfigTarifaOperacion"><ellipse cx="303.2717" cy="457.0543" fill="#F1F1F1" rx="120.7717" ry="26.5543" style="stroke:#181818;stroke-width:0.5;"/><text fill="#000000" font-family="sans-serif" font-size="14" lengthAdjust="spacing" textLength="209" x="198.7717" y="459.901">Configurar Tarifa de Operación</text></g><g id="elem_ConfigCuotaDestino"><ellipse cx="303.6957" cy="543.8391" fill="#F1F1F1" rx="114.6957" ry="25.3391" style="stroke:#181818;stroke-width:0.5;"/><text fill="#000000" font-family="sans-serif" font-size="14" lengthAdjust="spacing" textLength="196" x="205.6957" y="546.6858">Configurar Cuota de Destino</text></g><g id="elem_DesactivarUsuario"><ellipse cx="303.495" cy="624.199" fill="#F1F1F1" rx="83.995" ry="19.199" style="stroke:#181818;stroke-width:0.5;"/><text fill="#000000" font-family="sans-serif" font-size="14" lengthAdjust="spacing" textLength="128" x="239.2335" y="627.1356">Desactivar Usuario</text></g><g id="elem_ModificarDatosPuntoControl"><ellipse cx="303.712" cy="708.8424" fill="#F1F1F1" rx="139.712" ry="30.3424" style="stroke:#181818;stroke-width:0.5;"/><text fill="#000000" font-family="sans-serif" font-size="14" lengthAdjust="spacing" textLength="249" x="179.212" y="711.6891">Modificar Datos de Punto de Control</text></g><g id="elem_ProcesarPaquete"><ellipse cx="303.3658" cy="793.7732" fill="#F1F1F1" rx="81.8658" ry="18.7732" style="stroke:#181818;stroke-width:0.5;"/><text fill="#000000" font-family="sans-serif" font-size="14" lengthAdjust="spacing" textLength="123" x="240.8805" y="796.9463">Procesar Paquete</text></g><g id="elem_VisualizarPaquetesPendientes"><ellipse cx="303.5326" cy="875.8065" fill="#F1F1F1" rx="124.5326" ry="27.3065" style="stroke:#181818;stroke-width:0.5;"/><text fill="#000000" font-family="sans-serif" font-size="14" lengthAdjust="spacing" textLength="217" x="195.0326" y="878.6532">Visualizar Paquetes Pendientes</text></g><g id="elem_ConsultarLocalizacion"><ellipse cx="303.3042" cy="968.9608" fill="#F1F1F1" rx="137.8042" ry="29.9608" style="stroke:#181818;stroke-width:0.5;"/><text fill="#000000" font-family="sans-serif" font-size="14" lengthAdjust="spacing" textLength="245" x="180.8042" y="971.8075">Consultar Localización de Paquetes</text></g><g id="elem_IngresarPaquete"><ellipse cx="303.2839" cy="1052.8568" fill="#F1F1F1" rx="79.7839" ry="18.3568" style="stroke:#181818;stroke-width:0.5;"/><text fill="#000000" font-family="sans-serif" font-size="14" lengthAdjust="spacing" textLength="118" x="242.5356" y="1056.2613">Ingresar Paquete</text></g><g id="elem_CrearCliente"><ellipse cx="303.334" cy="1132.8668" fill="#F1F1F1" rx="119.834" ry="26.3668" style="stroke:#181818;stroke-width:0.5;"/><text fill="#000000" font-family="sans-serif" font-size="14" lengthAdjust="spacing" textLength="207" x="199.834" y="1135.7135">Crear Cliente (si es necesario)</text></g><g id="elem_GenerarFactura"><ellipse cx="579.9563" cy="1052.7913" fill="#F1F1F1" rx="76.9563" ry="17.7913" style="stroke:#181818;stroke-width:0.5;"/><text fill="#000000" font-family="sans-serif" font-size="14" lengthAdjust="spacing" textLength="111" x="521.5675" y="1056.5101">Generar Factura</text></g><g id="elem_ConsultarEstadoPaquete"><ellipse cx="303.3973" cy="1221.1795" fill="#F1F1F1" rx="118.8973" ry="26.1795" style="stroke:#181818;stroke-width:0.5;"/><text fill="#000000" font-family="sans-serif" font-size="14" lengthAdjust="spacing" textLength="205" x="200.8973" y="1224.0261">Consultar Estado del Paquete</text></g><g id="elem_ConsultarLocalizacionPaquete"><ellipse cx="303.4233" cy="1311.9847" fill="#F1F1F1" rx="135.4233" ry="29.4847" style="stroke:#181818;stroke-width:0.5;"/><text fill="#000000" font-family="sans-serif" font-size="14" lengthAdjust="spacing" textLength="240" x="183.4233" y="1314.8313">Consultar Localización del Paquete</text></g><!--MD5=[97ab183161fd5d1db7fba7485cf76add]
entity Admin--><g id="elem_Admin"><ellipse cx="55" cy="343.5" fill="#F1F1F1" rx="8" ry="8" style="stroke:#181818;stroke-width:0.5;"/><path d="M55,351.5 L55,378.5 M42,359.5 L68,359.5 M55,378.5 L42,393.5 M55,378.5 L68,393.5 " fill="none" style="stroke:#181818;stroke-width:0.5;"/><text fill="#000000" font-family="sans-serif" font-size="14" lengthAdjust="spacing" textLength="95" x="7.5" y="407.9951">Administrador</text></g><!--MD5=[9544e8f9a50b6f5806c8e28b91970f7d]
entity Operador--><g id="elem_Operador"><ellipse cx="55" cy="846.5" fill="#F1F1F1" rx="8" ry="8" style="stroke:#181818;stroke-width:0.5;"/><path d="M55,854.5 L55,881.5 M42,862.5 L68,862.5 M55,881.5 L42,896.5 M55,881.5 L68,896.5 " fill="none" style="stroke:#181818;stroke-width:0.5;"/><text fill="#000000" font-family="sans-serif" font-size="14" lengthAdjust="spacing" textLength="65" x="22.5" y="910.9951">Operador</text></g><!--MD5=[d1578a21acadb5564cb624d5c415804f]
entity Recepcionista--><g id="elem_Recepcionista"><ellipse cx="55" cy="1075.5" fill="#F1F1F1" rx="8" ry="8" style="stroke:#181818;stroke-width:0.5;"/><path d="M55,1083.5 L55,1110.5 M42,1091.5 L68,1091.5 M55,1110.5 L42,1125.5 M55,1110.5 L68,1125.5 " fill="none" style="stroke:#181818;stroke-width:0.5;"/><text fill="#000000" font-family="sans-serif" font-size="14" lengthAdjust="spacing" textLength="98" x="6" y="1139.9951">Recepcionista</text></g><!--MD5=[d9f75b78703733959770a1bae7362de0]
entity Cliente--><g id="elem_Cliente"><ellipse cx="55" cy="1220.5" fill="#F1F1F1" rx="8" ry="8" style="stroke:#181818;stroke-width:0.5;"/><path d="M55,1228.5 L55,1255.5 M42,1236.5 L68,1236.5 M55,1255.5 L42,1270.5 M55,1255.5 L68,1270.5 " fill="none" style="stroke:#181818;stroke-width:0.5;"/><text fill="#000000" font-family="sans-serif" font-size="14" lengthAdjust="spacing" textLength="48" x="31" y="1284.9951">Cliente</text></g><!--MD5=[656e443878e2d53bc4a194a2efc37ae4]
link Admin to Config--><g id="link_Admin_Config"><path d="M57.16,334.81 C61.03,278.24 76.86,172.65 140,115 C160.22,96.54 187.68,86.67 214.28,81.57 " fill="none" id="Admin-to-Config" style="stroke:#181818;stroke-width:1.0;"/><polygon fill="#181818" points="219.24,80.67,209.6732,78.3298,214.3193,81.5569,211.0922,86.2029,219.24,80.67" style="stroke:#181818;stroke-width:1.0;"/></g><!--MD5=[20addbf0520c8631c17c047cd1202172]
link Admin to CrearRuta--><g id="link_Admin_CrearRuta"><path d="M61.94,334.93 C70.88,290.93 92.16,219.63 140,181 C166.57,159.54 203.42,150.88 235.31,147.77 " fill="none" id="Admin-to-CrearRuta" style="stroke:#181818;stroke-width:1.0;"/><polygon fill="#181818" points="240.39,147.32,231.0714,144.132,235.4096,147.7624,231.7792,152.1006,240.39,147.32" style="stroke:#181818;stroke-width:1.0;"/></g><!--MD5=[703259f92ee87cb22513f50f33617d92]
link Admin to DesactivarRuta--><g id="link_Admin_DesactivarRuta"><path d="M72.64,334.92 C86.66,307.38 109.34,271.53 140,251 C164.61,234.53 195.6,225.63 223.9,220.89 " fill="none" id="Admin-to-DesactivarRuta" style="stroke:#181818;stroke-width:1.0;"/><polygon fill="#181818" points="229.15,220.06,219.6254,217.5537,224.2146,220.8611,220.9072,225.4503,229.15,220.06" style="stroke:#181818;stroke-width:1.0;"/></g><!--MD5=[8891e4abb5fb9cb58982b0ee5e3ab612]
link Admin to AgregarPuntoControl--><g id="link_Admin_AgregarPuntoControl"><path d="M102.84,348.7 C114.76,343.07 127.69,337.43 140,333 C166.03,323.62 195.14,315.56 221.45,309.12 " fill="none" id="Admin-to-AgregarPuntoControl" style="stroke:#181818;stroke-width:1.0;"/><polygon fill="#181818" points="226.33,307.94,216.643,306.1616,221.4694,309.1123,218.5187,313.9386,226.33,307.94" style="stroke:#181818;stroke-width:1.0;"/></g><!--MD5=[a494e948cb2ef4c258994b9d64727cf3]
link Admin to QuitarPuntoControl--><g id="link_Admin_QuitarPuntoControl"><path d="M102.65,373 C129.95,373 165.54,373 199.12,373 " fill="none" id="Admin-to-QuitarPuntoControl" style="stroke:#181818;stroke-width:1.0;"/><polygon fill="#181818" points="204.49,373,195.49,369,199.49,373,195.49,377,204.49,373" style="stroke:#181818;stroke-width:1.0;"/></g><!--MD5=[04b918c0b6a013151d91a8c79fb283e1]
link Admin to ConfigTarifaOperacion--><g id="link_Admin_ConfigTarifaOperacion"><path d="M102.52,396.25 C114.56,401.81 127.63,407.45 140,412 C164.47,421 191.58,429.18 216.54,436.03 " fill="none" id="Admin-to-ConfigTarifaOperacion" style="stroke:#181818;stroke-width:1.0;"/><polygon fill="#181818" points="221.5,437.38,213.8665,431.1567,216.6755,436.0668,211.7654,438.8759,221.5,437.38" style="stroke:#181818;stroke-width:1.0;"/></g><!--MD5=[b93e01b7d54f43148ec5ccb467684ecd]
link Admin to ConfigCuotaDestino--><g id="link_Admin_ConfigCuotaDestino"><path d="M71.76,411.02 C85.62,439.87 108.51,478.31 140,501 C157.94,513.93 179.5,522.97 200.95,529.29 " fill="none" id="Admin-to-ConfigCuotaDestino" style="stroke:#181818;stroke-width:1.0;"/><polygon fill="#181818" points="205.82,530.68,198.2602,524.3673,201.0113,529.3102,196.0685,532.0613,205.82,530.68" style="stroke:#181818;stroke-width:1.0;"/></g><!--MD5=[950289c6e33e1b454bb59164c3c4d70c]
link Admin to DesactivarUsuario--><g id="link_Admin_DesactivarUsuario"><path d="M60.19,411.28 C67.58,459.6 87.5,541.85 140,587 C160.96,605.03 188.91,614.75 215.72,619.86 " fill="none" id="Admin-to-DesactivarUsuario" style="stroke:#181818;stroke-width:1.0;"/><polygon fill="#181818" points="220.71,620.76,212.5594,615.2312,215.7888,619.8756,211.1444,623.105,220.71,620.76" style="stroke:#181818;stroke-width:1.0;"/></g><!--MD5=[1253f19b7c6c8026e7980fa147c69617]
link Admin to ModificarDatosPuntoControl--><g id="link_Admin_ModificarDatosPuntoControl"><path d="M56.19,411.25 C58.61,472.3 72.36,591.81 140,660 C152.61,672.72 168.4,682.16 185.14,689.16 " fill="none" id="Admin-to-ModificarDatosPuntoControl" style="stroke:#181818;stroke-width:1.0;"/><polygon fill="#181818" points="189.88,691.07,183.028,683.9954,185.2426,689.2008,180.0372,691.4153,189.88,691.07" style="stroke:#181818;stroke-width:1.0;"/></g><!--MD5=[d1ca359699e22a0c54c47d75c7fa4ebf]
link Operador to ProcesarPaquete--><g id="link_Operador_ProcesarPaquete"><path d="M87.76,856.38 C103.09,847.59 122.02,837.72 140,831 C169.08,820.13 202.33,811.87 231.14,805.94 " fill="none" id="Operador-to-ProcesarPaquete" style="stroke:#181818;stroke-width:1.0;"/><polygon fill="#181818" points="236.1,804.94,226.4879,802.7935,231.1982,805.9261,228.0656,810.6364,236.1,804.94" style="stroke:#181818;stroke-width:1.0;"/></g><!--MD5=[f7c8651cfb791ac131f12c7208dac3c6]
link Operador to VisualizarPaquetesPendientes--><g id="link_Operador_VisualizarPaquetesPendientes"><path d="M87.72,876 C110.06,876 141.59,876 173.63,876 " fill="none" id="Operador-to-VisualizarPaquetesPendientes" style="stroke:#181818;stroke-width:1.0;"/><polygon fill="#181818" points="178.78,876,169.78,872,173.78,876,169.78,880,178.78,876" style="stroke:#181818;stroke-width:1.0;"/></g><!--MD5=[ae356c6b8e6a83903990cdcecf589f40]
link Operador to ConsultarLocalizacion--><g id="link_Operador_ConsultarLocalizacion"><path d="M87.56,894.89 C103.01,903.62 122.09,913.65 140,921 C161.72,929.92 185.7,937.94 208.41,944.76 " fill="none" id="Operador-to-ConsultarLocalizacion" style="stroke:#181818;stroke-width:1.0;"/><polygon fill="#181818" points="213.23,946.2,205.7449,939.7989,208.4377,944.7737,203.4629,947.4665,213.23,946.2" style="stroke:#181818;stroke-width:1.0;"/></g><!--MD5=[d47015ce063165c79dafeabdc090051f]
link Recepcionista to IngresarPaquete--><g id="link_Recepcionista_IngresarPaquete"><path d="M104.11,1094.85 C142.48,1086.76 196.57,1075.35 238.58,1066.49 " fill="none" id="Recepcionista-to-IngresarPaquete" style="stroke:#181818;stroke-width:1.0;"/><polygon fill="#181818" points="243.64,1065.42,234.0033,1063.3869,238.7502,1066.4637,235.6733,1071.2106,243.64,1065.42" style="stroke:#181818;stroke-width:1.0;"/></g><!--MD5=[29bc178f04af4fc2dc73ff08b3ef2efc]
link Recepcionista to CrearCliente--><g id="link_Recepcionista_CrearCliente"><path d="M104.11,1110.47 C129.01,1113.29 160.53,1116.87 191.07,1120.34 " fill="none" id="Recepcionista-to-CrearCliente" style="stroke:#181818;stroke-width:1.0;"/><polygon fill="#181818" points="196.36,1120.94,187.8756,1115.9384,191.3927,1120.369,186.9621,1123.8861,196.36,1120.94" style="stroke:#181818;stroke-width:1.0;"/></g><!--MD5=[4b6c3cf40e5ecc0ec2ec9b3985e89d0c]
link IngresarPaquete to GenerarFactura--><g id="link_IngresarPaquete_GenerarFactura"><path d="M383.53,1053 C419.31,1053 461.56,1053 497.62,1053 " fill="none" id="IngresarPaquete-to-GenerarFactura" style="stroke:#181818;stroke-width:1.0;"/><polygon fill="#181818" points="502.89,1053,493.89,1049,497.89,1053,493.89,1057,502.89,1053" style="stroke:#181818;stroke-width:1.0;"/></g><!--MD5=[155df23abe8c2ccbe3a23c5cb3aa38e9]
link Cliente to ConsultarEstadoPaquete--><g id="link_Cliente_ConsultarEstadoPaquete"><path d="M79.19,1247.27 C105.56,1244.17 150.52,1238.88 193.21,1233.86 " fill="none" id="Cliente-to-ConsultarEstadoPaquete" style="stroke:#181818;stroke-width:1.0;"/><polygon fill="#181818" points="198.4,1233.25,188.9938,1230.3305,193.4343,1233.835,189.9298,1238.2756,198.4,1233.25" style="stroke:#181818;stroke-width:1.0;"/></g><!--MD5=[07a2ecf22b9c17fceda0535f62140c40]
link Cliente to ConsultarLocalizacionPaquete--><g id="link_Cliente_ConsultarLocalizacionPaquete"><path d="M79.19,1255.83 C108.85,1263.29 162.01,1276.66 209.03,1288.49 " fill="none" id="Cliente-to-ConsultarLocalizacionPaquete" style="stroke:#181818;stroke-width:1.0;"/><polygon fill="#181818" points="214.14,1289.78,206.3999,1283.6897,209.2935,1288.5505,204.4327,1291.4441,214.14,1289.78" style="stroke:#181818;stroke-width:1.0;"/></g><!--MD5=[94c95c1bc4a76d84cb2ac86781e6ea06]
@startuml

left to right direction

actor "Administrador" as Admin
actor "Operador" as Operador
actor "Recepcionista" as Recepcionista
actor "Cliente" as Cliente

rectangle "Sistema de Registro\n(Clientes, Paquetes, Rutas, Ganancias)" {
    usecase "Configurar Sistema" as Config
    usecase "Crear Ruta" as CrearRuta
    usecase "Desactivar Ruta" as DesactivarRuta
    usecase "Agregar Punto de Control" as AgregarPuntoControl
    usecase "Quitar Punto de Control" as QuitarPuntoControl
    usecase "Configurar Tarifa de Operación" as ConfigTarifaOperacion
    usecase "Configurar Cuota de Destino" as ConfigCuotaDestino
    usecase "Desactivar Usuario" as DesactivarUsuario
    usecase "Modificar Datos de Punto de Control" as ModificarDatosPuntoControl

    Admin - -> Config
    Admin - -> CrearRuta
    Admin - -> DesactivarRuta
    Admin - -> AgregarPuntoControl
    Admin - -> QuitarPuntoControl
    Admin - -> ConfigTarifaOperacion
    Admin - -> ConfigCuotaDestino
    Admin - -> DesactivarUsuario
    Admin - -> ModificarDatosPuntoControl

    usecase "Procesar Paquete" as ProcesarPaquete
    usecase "Visualizar Paquetes Pendientes" as VisualizarPaquetesPendientes
    usecase "Consultar Localización de Paquetes" as ConsultarLocalizacion

    Operador - -> ProcesarPaquete
    Operador - -> VisualizarPaquetesPendientes
    Operador - -> ConsultarLocalizacion

    usecase "Ingresar Paquete" as IngresarPaquete
    usecase "Crear Cliente (si es necesario)" as CrearCliente

    Recepcionista - -> IngresarPaquete
    Recepcionista - -> CrearCliente

    usecase "Generar Factura" as GenerarFactura

    IngresarPaquete - -> GenerarFactura

    usecase "Consultar Estado del Paquete" as ConsultarEstadoPaquete
    usecase "Consultar Localización del Paquete" as ConsultarLocalizacionPaquete

    Cliente - -> ConsultarEstadoPaquete
    Cliente - -> ConsultarLocalizacionPaquete
}

@enduml

PlantUML version 1.2022.7(Mon Aug 22 11:01:30 CST 2022)
(GPL source distribution)
Java Runtime: OpenJDK Runtime Environment
JVM: OpenJDK 64-Bit Server VM
Default Encoding: UTF-8
Language: es
Country: GT
--></g></svg>