<?xml version="1.0" encoding="UTF-8" standalone="no"?><svg xmlns="http://www.w3.org/2000/svg" xmlns:xlink="http://www.w3.org/1999/xlink" contentStyleType="text/css" height="661px" preserveAspectRatio="none" style="width:592px;height:661px;background:#FFFFFF;" version="1.1" viewBox="0 0 592 661" width="592px" zoomAndPan="magnify"><defs/><g><!--MD5=[2a22e40bc1e9a7134ec93cfa3f326641]
class administrador--><g id="elem_administrador"><rect codeLine="2" fill="#F1F1F1" height="113.1875" id="administrador" rx="2.5" ry="2.5" style="stroke:#181818;stroke-width:0.5;" width="157" x="7" y="7"/><ellipse cx="35.95" cy="23" fill="#ADD1B2" rx="11" ry="11" style="stroke:#181818;stroke-width:1.0;"/><path d="M32.3094,29.5 L32.3094,17.3594 L39.9656,17.3594 L39.9656,19.4844 L34.6844,19.4844 L34.6844,22.1406 L39.7,22.1406 L39.7,24.2656 L34.6844,24.2656 L34.6844,27.375 L39.9656,27.375 L39.9656,29.5 L32.3094,29.5 Z " fill="#000000"/><text fill="#000000" font-family="sans-serif" font-size="14" lengthAdjust="spacing" textLength="94" x="53.05" y="27.8467">administrador</text><line style="stroke:#181818;stroke-width:0.5;" x1="8" x2="163" y1="39" y2="39"/><text fill="#000000" font-family="sans-serif" font-size="14" lengthAdjust="spacing" textLength="54" x="13" y="55.9951">nombre</text><text fill="#000000" font-family="sans-serif" font-size="14" lengthAdjust="spacing" textLength="45" x="13" y="72.292">correo</text><text fill="#000000" font-family="sans-serif" font-size="14" lengthAdjust="spacing" textLength="78" x="13" y="88.5889">contraseña</text><line style="stroke:#181818;stroke-width:0.5;" x1="8" x2="163" y1="95.8906" y2="95.8906"/><text fill="#000000" font-family="sans-serif" font-size="14" lengthAdjust="spacing" textLength="145" x="13" y="112.8857">id_administrador (PK)</text></g><!--MD5=[838d5012cb54328f143c8edcaa9fc25d]
class operador--><g id="elem_operador"><rect codeLine="9" fill="#F1F1F1" height="113.1875" id="operador" rx="2.5" ry="2.5" style="stroke:#181818;stroke-width:0.5;" width="126" x="199.5" y="7"/><ellipse cx="228.45" cy="23" fill="#ADD1B2" rx="11" ry="11" style="stroke:#181818;stroke-width:1.0;"/><path d="M224.8094,29.5 L224.8094,17.3594 L232.4656,17.3594 L232.4656,19.4844 L227.1844,19.4844 L227.1844,22.1406 L232.2,22.1406 L232.2,24.2656 L227.1844,24.2656 L227.1844,27.375 L232.4656,27.375 L232.4656,29.5 L224.8094,29.5 Z " fill="#000000"/><text fill="#000000" font-family="sans-serif" font-size="14" lengthAdjust="spacing" textLength="63" x="245.55" y="27.8467">operador</text><line style="stroke:#181818;stroke-width:0.5;" x1="200.5" x2="324.5" y1="39" y2="39"/><text fill="#000000" font-family="sans-serif" font-size="14" lengthAdjust="spacing" textLength="54" x="205.5" y="55.9951">nombre</text><text fill="#000000" font-family="sans-serif" font-size="14" lengthAdjust="spacing" textLength="45" x="205.5" y="72.292">correo</text><text fill="#000000" font-family="sans-serif" font-size="14" lengthAdjust="spacing" textLength="78" x="205.5" y="88.5889">contraseña</text><line style="stroke:#181818;stroke-width:0.5;" x1="200.5" x2="324.5" y1="95.8906" y2="95.8906"/><text fill="#000000" font-family="sans-serif" font-size="14" lengthAdjust="spacing" textLength="114" x="205.5" y="112.8857">id_operador (PK)</text></g><!--MD5=[65b572a0c6c128ddf99a8f776a2f3a4f]
class recepcionista--><g id="elem_recepcionista"><rect codeLine="16" fill="#F1F1F1" height="113.1875" id="recepcionista" rx="2.5" ry="2.5" style="stroke:#181818;stroke-width:0.5;" width="156" x="360.5" y="7"/><ellipse cx="389.45" cy="23" fill="#ADD1B2" rx="11" ry="11" style="stroke:#181818;stroke-width:1.0;"/><path d="M385.8094,29.5 L385.8094,17.3594 L393.4656,17.3594 L393.4656,19.4844 L388.1844,19.4844 L388.1844,22.1406 L393.2,22.1406 L393.2,24.2656 L388.1844,24.2656 L388.1844,27.375 L393.4656,27.375 L393.4656,29.5 L385.8094,29.5 Z " fill="#000000"/><text fill="#000000" font-family="sans-serif" font-size="14" lengthAdjust="spacing" textLength="93" x="406.55" y="27.8467">recepcionista</text><line style="stroke:#181818;stroke-width:0.5;" x1="361.5" x2="515.5" y1="39" y2="39"/><text fill="#000000" font-family="sans-serif" font-size="14" lengthAdjust="spacing" textLength="54" x="366.5" y="55.9951">nombre</text><text fill="#000000" font-family="sans-serif" font-size="14" lengthAdjust="spacing" textLength="45" x="366.5" y="72.292">correo</text><text fill="#000000" font-family="sans-serif" font-size="14" lengthAdjust="spacing" textLength="78" x="366.5" y="88.5889">contraseña</text><line style="stroke:#181818;stroke-width:0.5;" x1="361.5" x2="515.5" y1="95.8906" y2="95.8906"/><text fill="#000000" font-family="sans-serif" font-size="14" lengthAdjust="spacing" textLength="144" x="366.5" y="112.8857">id_recepcionista (PK)</text></g><!--MD5=[1b7a9d4a618bab8116aa93dad356d18f]
class ruta--><g id="elem_ruta"><rect codeLine="23" fill="#F1F1F1" height="129.4844" id="ruta" rx="2.5" ry="2.5" style="stroke:#181818;stroke-width:0.5;" width="121" x="378" y="180"/><ellipse cx="420.9" cy="196" fill="#ADD1B2" rx="11" ry="11" style="stroke:#181818;stroke-width:1.0;"/><path d="M417.2594,202.5 L417.2594,190.3594 L424.9156,190.3594 L424.9156,192.4844 L419.6344,192.4844 L419.6344,195.1406 L424.65,195.1406 L424.65,197.2656 L419.6344,197.2656 L419.6344,200.375 L424.9156,200.375 L424.9156,202.5 L417.2594,202.5 Z " fill="#000000"/><text fill="#000000" font-family="sans-serif" font-size="14" lengthAdjust="spacing" textLength="27" x="441.1" y="200.8467">ruta</text><line style="stroke:#181818;stroke-width:0.5;" x1="379" x2="498" y1="212" y2="212"/><text fill="#000000" font-family="sans-serif" font-size="14" lengthAdjust="spacing" textLength="52" x="384" y="228.9951">destino</text><text fill="#000000" font-family="sans-serif" font-size="14" lengthAdjust="spacing" textLength="98" x="384" y="245.292">cuota_destino</text><text fill="#000000" font-family="sans-serif" font-size="14" lengthAdjust="spacing" textLength="109" x="384" y="261.5889">tarifa_operacion</text><text fill="#000000" font-family="sans-serif" font-size="14" lengthAdjust="spacing" textLength="48" x="384" y="277.8857">estado</text><line style="stroke:#181818;stroke-width:0.5;" x1="379" x2="498" y1="285.1875" y2="285.1875"/><text fill="#000000" font-family="sans-serif" font-size="14" lengthAdjust="spacing" textLength="78" x="384" y="302.1826">id_ruta (PK)</text></g><!--MD5=[96fda9a8f59c6a9a8a1d60661a98c108]
class punto_de_control--><g id="elem_punto_de_control"><rect codeLine="31" fill="#F1F1F1" height="96.8906" id="punto_de_control" rx="2.5" ry="2.5" style="stroke:#181818;stroke-width:0.5;" width="153" x="276" y="385"/><ellipse cx="291" cy="401" fill="#ADD1B2" rx="11" ry="11" style="stroke:#181818;stroke-width:1.0;"/><path d="M287.3594,407.5 L287.3594,395.3594 L295.0156,395.3594 L295.0156,397.4844 L289.7344,397.4844 L289.7344,400.1406 L294.75,400.1406 L294.75,402.2656 L289.7344,402.2656 L289.7344,405.375 L295.0156,405.375 L295.0156,407.5 L287.3594,407.5 Z " fill="#000000"/><text fill="#000000" font-family="sans-serif" font-size="14" lengthAdjust="spacing" textLength="121" x="305" y="405.8467">punto_de_control</text><line style="stroke:#181818;stroke-width:0.5;" x1="277" x2="428" y1="417" y2="417"/><text fill="#000000" font-family="sans-serif" font-size="14" lengthAdjust="spacing" textLength="115" x="282" y="433.9951">id_punto_control</text><text fill="#000000" font-family="sans-serif" font-size="14" lengthAdjust="spacing" textLength="46" x="282" y="450.292">id_ruta</text><text fill="#000000" font-family="sans-serif" font-size="14" lengthAdjust="spacing" textLength="109" x="282" y="466.5889">tarifa_operacion</text><line style="stroke:#181818;stroke-width:0.5;" x1="277" x2="428" y1="473.8906" y2="473.8906"/></g><!--MD5=[e3de345340cf3d06b45fc7dfccc3e3bc]
class cliente--><g id="elem_cliente"><rect codeLine="37" fill="#F1F1F1" height="96.8906" id="cliente" rx="2.5" ry="2.5" style="stroke:#181818;stroke-width:0.5;" width="109" x="470" y="558"/><ellipse cx="498.95" cy="574" fill="#ADD1B2" rx="11" ry="11" style="stroke:#181818;stroke-width:1.0;"/><path d="M495.3094,580.5 L495.3094,568.3594 L502.9656,568.3594 L502.9656,570.4844 L497.6844,570.4844 L497.6844,573.1406 L502.7,573.1406 L502.7,575.2656 L497.6844,575.2656 L497.6844,578.375 L502.9656,578.375 L502.9656,580.5 L495.3094,580.5 Z " fill="#000000"/><text fill="#000000" font-family="sans-serif" font-size="14" lengthAdjust="spacing" textLength="46" x="516.05" y="578.8467">cliente</text><line style="stroke:#181818;stroke-width:0.5;" x1="471" x2="578" y1="590" y2="590"/><text fill="#000000" font-family="sans-serif" font-size="14" lengthAdjust="spacing" textLength="54" x="476" y="606.9951">nombre</text><text fill="#000000" font-family="sans-serif" font-size="14" lengthAdjust="spacing" textLength="17" x="476" y="623.292">nit</text><line style="stroke:#181818;stroke-width:0.5;" x1="471" x2="578" y1="630.5938" y2="630.5938"/><text fill="#000000" font-family="sans-serif" font-size="14" lengthAdjust="spacing" textLength="97" x="476" y="647.5889">id_cliente (PK)</text></g><!--MD5=[d1935c89f9c36c7f64284b91ef65ea40]
class paquete--><g id="elem_paquete"><rect codeLine="43" fill="#F1F1F1" height="129.4844" id="paquete" rx="2.5" ry="2.5" style="stroke:#181818;stroke-width:0.5;" width="121" x="464" y="369"/><ellipse cx="492.95" cy="385" fill="#ADD1B2" rx="11" ry="11" style="stroke:#181818;stroke-width:1.0;"/><path d="M489.3094,391.5 L489.3094,379.3594 L496.9656,379.3594 L496.9656,381.4844 L491.6844,381.4844 L491.6844,384.1406 L496.7,384.1406 L496.7,386.2656 L491.6844,386.2656 L491.6844,389.375 L496.9656,389.375 L496.9656,391.5 L489.3094,391.5 Z " fill="#000000"/><text fill="#000000" font-family="sans-serif" font-size="14" lengthAdjust="spacing" textLength="58" x="510.05" y="389.8467">paquete</text><line style="stroke:#181818;stroke-width:0.5;" x1="465" x2="584" y1="401" y2="401"/><text fill="#000000" font-family="sans-serif" font-size="14" lengthAdjust="spacing" textLength="35" x="470" y="417.9951">peso</text><text fill="#000000" font-family="sans-serif" font-size="14" lengthAdjust="spacing" textLength="48" x="470" y="434.292">estado</text><text fill="#000000" font-family="sans-serif" font-size="14" lengthAdjust="spacing" textLength="109" x="470" y="450.5889">tarifa_operacion</text><line style="stroke:#181818;stroke-width:0.5;" x1="465" x2="584" y1="457.8906" y2="457.8906"/><text fill="#000000" font-family="sans-serif" font-size="14" lengthAdjust="spacing" textLength="109" x="470" y="474.8857">id_paquete (PK)</text><text fill="#000000" font-family="sans-serif" font-size="14" lengthAdjust="spacing" textLength="92" x="470" y="491.1826">id_cliente(FK)</text></g><!--MD5=[bd01f3d51e4e346937d82762723e79fa]
link ruta to paquete--><g id="link_ruta_paquete"><path codeLine="51" d="M467.74,309.07 C476.6,328.34 486.33,349.51 495.2,368.79 " fill="none" id="ruta-paquete" style="stroke:#181818;stroke-width:1.0;"/></g><!--MD5=[d8397ceddcfaf806c254255282a50930]
link paquete to cliente--><g id="link_paquete_cliente"><path codeLine="52" d="M524.5,498.17 C524.5,517.93 524.5,539.34 524.5,557.81 " fill="none" id="paquete-cliente" style="stroke:#181818;stroke-width:1.0;"/></g><!--MD5=[736165145d75088f2cf58260afe9d714]
link ruta to punto_de_control--><g id="link_ruta_punto_de_control"><path codeLine="53" d="M409.26,309.07 C397.87,333.85 385.03,361.76 374.45,384.76 " fill="none" id="ruta-punto_de_control" style="stroke:#181818;stroke-width:1.0;"/></g><!--MD5=[2120f7827b275478fb207e283fccc44b]
link recepcionista to ruta--><g id="link_recepcionista_ruta"><path codeLine="54" d="M438.5,120.16 C438.5,139.04 438.5,160.28 438.5,179.75 " fill="none" id="recepcionista-ruta" style="stroke:#181818;stroke-width:1.0;"/></g><!--MD5=[8f8af8137b640b0271957cef775a8099]
@startuml diagrama_entidad_relacion

    entity administrador {
        id_administrador (PK)
        nombre
        correo
        contraseña
    }

    entity operador {
        id_operador (PK)
        nombre
        correo
        contraseña
    }

    entity recepcionista {
        id_recepcionista (PK)
        nombre
        correo
        contraseña
    }

    entity ruta {
        id_ruta (PK)
        destino
        cuota_destino
        tarifa_operacion
        estado
    }

    entity punto_de_control {
        id_punto_control
        id_ruta
        tarifa_operacion
    }

    entity cliente {
        id_cliente (PK)
        nombre
        nit
    }

    entity paquete {
        id_paquete (PK)
        peso
        estado
        tarifa_operacion
        id_cliente(FK)
    }

    ruta - - paquete
    paquete - - cliente
    ruta - - punto_de_control
    recepcionista - - ruta

@end

PlantUML version 1.2022.7(Mon Aug 22 11:01:30 CST 2022)
(GPL source distribution)
Java Runtime: OpenJDK Runtime Environment
JVM: OpenJDK 64-Bit Server VM
Default Encoding: UTF-8
Language: es
Country: GT
--></g></svg>